<?xml version="1.0" encoding="UTF-8" standalone="no"?>
<!-- Created with Inkscape (http://www.inkscape.org/) -->

<svg
   width="58.032505mm"
   height="61.915482mm"
   viewBox="0 0 58.032505 61.915482"
   version="1.1"
   id="svg370"
   inkscape:version="1.2.2 (732a01da63, 2022-12-09)"
   sodipodi:docname="pink_plate_bottom.svg"
   xmlns:inkscape="http://www.inkscape.org/namespaces/inkscape"
   xmlns:sodipodi="http://sodipodi.sourceforge.net/DTD/sodipodi-0.dtd"
   xmlns="http://www.w3.org/2000/svg"
   xmlns:svg="http://www.w3.org/2000/svg">
  <sodipodi:namedview
     id="namedview372"
     pagecolor="#ffffff"
     bordercolor="#111111"
     borderopacity="1"
     inkscape:showpageshadow="0"
     inkscape:pageopacity="0"
     inkscape:pagecheckerboard="1"
     inkscape:deskcolor="#d1d1d1"
     inkscape:document-units="mm"
     showgrid="false"
     inkscape:zoom="4.3087087"
     inkscape:cx="81.695009"
     inkscape:cy="89.353916"
     inkscape:window-width="1920"
     inkscape:window-height="1009"
     inkscape:window-x="-8"
     inkscape:window-y="-8"
     inkscape:window-maximized="1"
     inkscape:current-layer="layer1" />
  <defs
     id="defs367" />
  <g
     inkscape:label="Layer 1"
     inkscape:groupmode="layer"
     id="layer1"
     transform="translate(-1.9228488,-1.7197309)">
    <path
       style="fill:#000000;stroke-width:0.999998"
       d="m 32.469296,63.614249 c -0.01987,-0.01645 -1.464984,-0.0138 -3.211366,0.0059 -3.453468,0.03884 -5.743078,0.0041 -8.04988,-0.122012 -0.81648,-0.04462 -1.808879,-0.09517 -2.205327,-0.112247 C 17.824199,63.335045 14.276037,63.059608 13.31551,62.944333 11.955888,62.781162 8.6255929,62.209706 7.8410417,62.004963 7.0187027,61.79035 6.241633,61.482927 6.0403097,61.292544 5.9593302,61.215975 5.8925514,61.020974 5.887182,60.845435 5.8766749,60.502045 5.5529776,59.819847 5.2402997,59.482116 4.9495579,59.168081 4.5513043,59.006078 3.929071,58.94875 3.6086913,58.919284 3.3134993,58.839385 3.2158315,58.755839 2.9330305,58.513921 2.5127606,57.615586 2.2536954,56.699262 L 2.00637,55.824456 2.0044419,52.431487 C 2.0033759,50.56535 1.9947396,45.360642 1.9852404,40.865474 1.975741,36.370297 1.9644114,30.558097 1.9600636,27.949471 1.9557148,25.340846 1.9422292,20.710267 1.9300923,17.659294 1.9032579,10.913557 1.9069265,10.875638 2.7637187,9.0416894 3.2714054,7.9549953 4.6811556,6.4882689 5.68214,6.0053154 6.0256612,5.8395741 6.0279346,5.835296 6.0705554,5.2745183 6.0941321,4.9642751 6.1799297,4.5458593 6.2612109,4.3447064 l 0.1477867,-0.3657331 1.8812947,-0.02974 1.8812947,-0.02974 0.234558,0.3995255 c 0.129007,0.2197386 0.378865,0.5359895 0.55524,0.7027798 0.301982,0.2855695 0.356915,0.3040699 0.942002,0.3172545 0.589691,0.01329 0.641092,-7.807e-4 1.009769,-0.2763722 0.549538,-0.4107882 0.791522,-0.9610853 0.769489,-1.7499006 -0.0099,-0.3527555 0.02541,-0.6593726 0.08519,-0.7406433 0.08772,-0.1192739 0.693578,-0.1808024 4.32858,-0.4395945 2.32462,-0.1655007 4.588731,-0.2987754 5.031361,-0.2961663 l 0.804779,0.00474 0.05762,0.5469223 c 0.05033,0.477687 0.08479,0.5596627 0.272188,0.6475716 0.528937,0.2481209 0.790277,0.030056 0.827386,-0.6903772 l 0.02767,-0.5372131 1.608039,-0.044917 c 2.925997,-0.08173 9.18756,-0.041066 9.932842,0.064507 0.275151,0.038973 0.276429,0.041338 0.290276,0.5370704 0.01668,0.597324 0.149591,0.7603306 0.609456,0.7474854 0.410144,-0.011456 0.507779,-0.1422645 0.55268,-0.7404694 l 0.0363,-0.4836472 0.940693,0.028585 c 2.305918,0.070075 8.835226,0.5649253 9.042809,0.6853462 0.05267,0.030521 0.09969,0.3563704 0.111244,0.7700281 0.02414,0.8642449 0.14062,1.1527061 0.689467,1.7075737 l 0.409365,0.4138562 0.745479,-0.020823 0.745469,-0.020823 0.367155,-0.4773456 C 51.400621,4.7119082 51.587737,4.4208202 51.614484,4.327586 51.670821,4.1311604 51.92596,4.1124942 54.098957,4.1458106 l 1.289285,0.019769 0.129698,0.2345151 c 0.07133,0.1289826 0.161525,0.5168755 0.200427,0.8619848 l 0.07075,0.6274693 0.562348,0.3502218 c 0.886002,0.5517905 1.461397,1.1011918 2.116266,2.0206823 1.329449,1.8666681 1.50985,2.7978801 1.485639,7.6685861 -0.02571,5.169401 -0.02674,5.617314 -0.02358,10.316488 0.0016,2.515545 -0.004,5.660177 -0.01255,6.988085 -0.0086,1.327909 -0.01742,3.043323 -0.01961,3.812034 -0.01336,4.691382 -0.07919,13.787647 -0.105139,14.52893 -0.01309,0.373041 -0.01872,1.421357 -0.01246,2.329586 0.01057,1.546108 -0.0032,1.700483 -0.215851,2.422622 -0.254074,0.86293 -0.384796,1.163378 -0.79156,1.819331 l -0.280604,0.452511 -0.478358,0.01536 c -1.108886,0.03498 -2.01998,0.92178 -1.991599,1.937814 0.01595,0.570837 -0.220082,0.696036 -2.462163,1.306077 -3.624983,0.98632 -7.928871,1.41952 -16.47717,1.658486 -2.517499,0.07037 -4.593526,0.114503 -4.613395,0.09805 z m -0.112255,-0.7543 c 0.05271,-0.0673 0.09854,-0.902283 0.112883,-2.057114 0.02883,-2.32147 0.04385,-2.273871 -0.736214,-2.333433 -0.908046,-0.06937 -1.911969,-0.01342 -2.010282,0.112074 -0.08598,0.109693 -0.162806,4.053456 -0.08317,4.269607 0.0528,0.143331 0.269115,0.163529 1.516695,0.141626 0.823378,-0.014 1.134352,-0.04879 1.200093,-0.13276 z m 7.610665,-0.607169 c 1.473395,-0.812536 1.481771,-2.895242 0.01489,-3.70324 -0.354432,-0.195229 -0.501238,-0.224312 -1.046935,-0.207378 -0.483264,0.0155 -0.714258,0.06507 -0.968185,0.209855 -1.691829,0.964765 -1.302972,3.487421 0.603289,3.913771 0.377951,0.08448 1.040619,-0.01656 1.396938,-0.213008 z m -16.129254,0.24305 c 0.832541,-0.276144 1.361137,-0.972614 1.417125,-1.867196 0.07358,-1.175593 -0.75856,-2.119727 -1.946887,-2.208921 -0.847888,-0.06365 -1.603855,0.371987 -2.002023,1.153659 -0.610305,1.198148 0.0575,2.627259 1.399456,2.994853 0.338094,0.09262 0.705678,0.06912 1.132328,-0.07244 z m 9.695244,-17.125654 c 0.961661,-0.35533 1.742064,-0.879154 2.471983,-1.659279 1.550821,-1.657488 2.059387,-4.198578 1.263599,-6.313683 -0.386063,-1.026101 -0.758918,-1.578525 -1.615909,-2.394105 -0.61867,-0.588785 -0.881317,-0.771233 -1.554763,-1.080039 -1.191706,-0.546469 -2.011722,-0.704014 -3.22532,-0.619666 -1.702631,0.118287 -2.882627,0.673421 -4.06782,1.913547 -1.160163,1.213936 -1.651184,2.424639 -1.67658,4.133904 -0.01882,1.267 0.130562,1.91075 0.69984,3.015895 0.631203,1.225344 1.924798,2.396021 3.219759,2.913805 0.936039,0.374271 1.546214,0.463868 2.71515,0.398714 0.919283,-0.05129 1.209253,-0.101904 1.770061,-0.309093 z M 53.318389,25.921962 53.2782,24.483193 51.838399,24.463487 c -0.932361,-0.01277 -1.469023,0.01112 -1.522703,0.06774 -0.04635,0.04891 -0.07818,0.682419 -0.07217,1.438316 l 0.01072,1.350887 0.365827,8.86e-4 c 0.201199,3.82e-4 0.804569,0.01594 1.3408,0.03428 0.536241,0.01834 1.070092,0.02703 1.186341,0.01928 l 0.211354,-0.01391 -0.04019,-1.438768 z"
       id="path321" />
  </g>
</svg>
