<?xml version="1.0" encoding="UTF-8" standalone="no"?>
<!-- Created with Inkscape (http://www.inkscape.org/) -->

<svg
   width="58.031944mm"
   height="59.702065mm"
   viewBox="0 0 58.031944 59.702065"
   version="1.1"
   id="svg778"
   inkscape:version="1.2.2 (732a01da63, 2022-12-09)"
   sodipodi:docname="pink_plate_top.svg"
   xmlns:inkscape="http://www.inkscape.org/namespaces/inkscape"
   xmlns:sodipodi="http://sodipodi.sourceforge.net/DTD/sodipodi-0.dtd"
   xmlns="http://www.w3.org/2000/svg"
   xmlns:svg="http://www.w3.org/2000/svg">
  <sodipodi:namedview
     id="namedview780"
     pagecolor="#ffffff"
     bordercolor="#111111"
     borderopacity="1"
     inkscape:showpageshadow="0"
     inkscape:pageopacity="0"
     inkscape:pagecheckerboard="1"
     inkscape:deskcolor="#d1d1d1"
     inkscape:document-units="mm"
     showgrid="false"
     inkscape:zoom="0.76167929"
     inkscape:cx="-84.68131"
     inkscape:cy="376.79901"
     inkscape:window-width="1920"
     inkscape:window-height="1009"
     inkscape:window-x="-8"
     inkscape:window-y="-8"
     inkscape:window-maximized="1"
     inkscape:current-layer="layer1" />
  <defs
     id="defs775" />
  <g
     inkscape:label="Layer 1"
     inkscape:groupmode="layer"
     id="layer1"
     transform="translate(-95.68912,-48.990525)">
    <path
       style="fill:#000000;stroke-width:0.999998"
       d="m 127.96391,108.394 c -0.0331,-0.11775 -0.0414,-0.35703 -0.0189,-0.53174 0.0229,-0.17472 0.0101,-1.5506 -0.0286,-3.05751 l -0.0705,-2.73981 1.79567,0.003 c 0.98763,0.002 4.37093,-0.0225 7.51846,-0.0536 l 5.72279,-0.0567 0.0112,0.65344 c 0.0106,0.59527 0.0346,0.68493 0.27509,1.00712 0.85225,1.1418 2.68009,0.85602 3.08051,-0.48164 0.0512,-0.17088 0.0701,-0.51717 0.042,-0.76955 l -0.051,-0.45884 1.12226,0.0268 c 1.11438,0.0266 1.12368,0.0253 1.32436,-0.18689 0.18707,-0.19782 0.20381,-0.29524 0.2251,-1.30986 0.0127,-0.602882 0.0201,-12.18749 0.0166,-25.743578 -0.004,-13.556088 0.008,-24.847938 0.0256,-25.092999 0.0176,-0.245061 0.0664,-0.446527 0.10836,-0.447701 0.15775,-0.0044 0.3528,0.514696 0.42112,1.12082 l 0.0708,0.627469 0.56236,0.350222 c 0.886,0.55179 1.46138,1.101192 2.11625,2.020682 1.32946,1.866669 1.50986,2.797881 1.48564,7.668587 -0.0257,5.169402 -0.0267,5.61731 -0.0236,10.316491 0.002,2.515536 -0.004,5.660168 -0.0126,6.988076 -0.009,1.327909 -0.0174,3.043323 -0.0196,3.812034 -0.0134,4.69139 -0.0792,13.787648 -0.10514,14.528935 -0.0131,0.373044 -0.0187,1.42136 -0.0125,2.329589 0.0106,1.546103 -0.003,1.700483 -0.21584,2.422613 -0.25408,0.86294 -0.38481,1.16338 -0.79156,1.81934 l -0.2806,0.45251 -0.47836,0.0154 c -1.10889,0.035 -2.01998,0.92178 -1.9916,1.93781 0.0159,0.57084 -0.22008,0.69604 -2.46216,1.30609 -3.49551,0.95108 -7.98191,1.42098 -15.60101,1.634 l -3.70112,0.10348 z m 5.7701,-1.12835 c 1.47339,-0.81254 1.48176,-2.89525 0.0149,-3.70324 -0.35443,-0.19523 -0.50123,-0.22432 -1.04693,-0.20738 -0.48326,0.0155 -0.71426,0.0651 -0.96818,0.20985 -1.69184,0.96477 -1.30298,3.48742 0.60329,3.91378 0.37795,0.0846 1.04062,-0.0165 1.39694,-0.21301 z m 17.86142,-27.31354 c 0.78576,-0.353797 1.19553,-1.209012 0.97363,-2.031988 -0.19813,-0.734788 -0.96718,-1.308594 -1.72548,-1.287413 -0.75831,0.02118 -1.49413,0.637022 -1.65094,1.381725 -0.28881,1.371711 1.12594,2.512602 2.40279,1.937676 z m -0.0494,-22.951989 c 1.2132,-0.547181 1.34279,-2.292999 0.22492,-3.029964 -1.25063,-0.824487 -2.90694,0.288088 -2.66237,1.788369 0.17452,1.070607 1.41527,1.702622 2.43745,1.241595 z m -31.73972,51.658499 c -4.07778,-0.0556 -10.09403,-0.38753 -12.72456,-0.70191 -1.35385,-0.1618 -4.68761,-0.73357 -5.47446,-0.93892 -0.82233,-0.2146 -1.59941,-0.52204 -1.800737,-0.71242 -0.08097,-0.0766 -0.147751,-0.27157 -0.153124,-0.44711 -0.0105,-0.34338 -0.334206,-1.02559 -0.646878,-1.36332 -0.290742,-0.31403 -0.689001,-0.47603 -1.311234,-0.53336 -0.320378,-0.0295 -0.615574,-0.10937 -0.713235,-0.19291 -0.282805,-0.24192 -0.703071,-1.14025 -0.962138,-2.05658 l -0.247322,-0.87481 -0.0019,-3.392968 c -0.0011,-1.866136 -0.0097,-7.070843 -0.01921,-11.566013 -0.0095,-4.495172 -0.02083,-10.307371 -0.02518,-12.916001 -0.0043,-2.608629 -0.01783,-7.239209 -0.02997,-10.290175 -0.02683,-6.745738 -0.02316,-6.783657 0.833628,-8.617605 0.507685,-1.086694 1.917442,-2.553421 2.918421,-3.036374 0.343526,-0.165743 0.345798,-0.170021 0.388416,-0.730797 0.0529,-0.695584 0.277673,-1.290526 0.489953,-1.296669 0.13241,-0.0038 0.15156,0.0608 0.14304,0.483027 -0.0146,0.72138 0.0605,51.361145 0.077,51.951275 0.0118,0.4226 0.0487,0.53704 0.22764,0.70626 0.20537,0.19421 0.2567,0.20073 1.34226,0.17041 l 1.12871,-0.0315 0.0135,0.62746 c 0.0127,0.5635 0.0409,0.66347 0.27803,0.98096 0.85049,1.13894 2.68007,0.85591 3.07885,-0.47632 0.0502,-0.16785 0.0728,-0.49901 0.0502,-0.73593 l -0.0411,-0.43072 1.73652,0.004 c 0.95508,0.002 4.31793,-0.0216 7.47298,-0.0533 3.15507,-0.0317 5.77572,-0.0348 5.8237,-0.007 0.0581,0.0337 0.0972,1.09222 0.11721,3.1648 0.0241,2.50753 0.007,3.13807 -0.0858,3.23668 -0.0637,0.0674 -0.14183,0.11745 -0.17361,0.1113 -0.0318,-0.006 -0.80131,-0.0213 -1.71006,-0.0338 z m -2.20161,-1.14992 c 0.83255,-0.27614 1.36115,-0.97262 1.41713,-1.8672 0.0736,-1.17558 -0.75856,-2.11972 -1.94688,-2.20892 -0.84789,-0.0636 -1.60386,0.37199 -2.00203,1.15366 -0.61031,1.19815 0.0575,2.62726 1.39945,2.99485 0.3381,0.0926 0.70569,0.0691 1.13234,-0.0723 z M 99.422125,80.054497 c 1.213195,-0.547181 1.342795,-2.292999 0.224916,-3.029965 -1.250628,-0.824487 -2.906939,0.288089 -2.662373,1.78837 0.174521,1.070607 1.415271,1.702622 2.437457,1.241595 z m -0.05059,-23.036905 c 1.213215,-0.54718 1.342805,-2.292998 0.224931,-3.029963 -1.250633,-0.824487 -2.906944,0.288088 -2.662378,1.788369 0.174521,1.070607 1.415272,1.702622 2.437447,1.241594 z m 25.048415,43.841938 c -12.50337,0.0971 -22.7387,0.16883 -22.74518,0.15929 -0.0138,-0.0203 -0.0608,-51.508303 -0.047,-51.52432 0.005,-0.0059 0.36206,-0.0032 0.79323,0.006 0.91011,0.01953 1.25034,0.0977 1.72625,0.396624 0.80964,0.50856 -0.61619,0.472364 20.75507,0.526869 16.62789,0.04241 19.66135,0.0318 19.77545,-0.06915 0.0741,-0.06558 0.38363,-0.247531 0.68776,-0.404334 0.51946,-0.267815 0.61007,-0.286692 1.49473,-0.311403 0.9246,-0.02583 0.94184,-0.02281 0.94714,0.167174 0.003,0.106413 -6.9e-4,11.569561 -0.008,25.473661 -0.007,13.904101 -0.0129,25.308739 -0.012,25.343659 8e-4,0.0349 -0.14142,0.0626 -0.31615,0.0614 -0.17472,-0.001 -10.5477,0.0774 -23.05105,0.17452 z m 22.66473,-29.924698 -0.0402,-1.438772 -1.4398,-0.01972 c -0.93235,-0.01276 -1.46903,0.0111 -1.52271,0.06771 -0.0463,0.04891 -0.0782,0.682416 -0.0722,1.438316 l 0.0107,1.350893 0.36583,9.25e-4 c 0.2012,4.83e-4 0.80457,0.01595 1.34081,0.03432 0.53623,0.01837 1.07008,0.02703 1.18633,0.01924 l 0.21136,-0.01411 -0.0402,-1.438771 z"
       id="path349" />
  </g>
</svg>
