<?xml version="1.0" encoding="UTF-8" standalone="no"?>
<!-- Created with Inkscape (http://www.inkscape.org/) -->

<svg
   width="58.032555mm"
   height="59.667507mm"
   viewBox="0 0 58.032555 59.667507"
   version="1.1"
   id="svg627"
   inkscape:version="1.2.2 (732a01da63, 2022-12-09)"
   sodipodi:docname="pink_plate_mid.svg"
   xmlns:inkscape="http://www.inkscape.org/namespaces/inkscape"
   xmlns:sodipodi="http://sodipodi.sourceforge.net/DTD/sodipodi-0.dtd"
   xmlns="http://www.w3.org/2000/svg"
   xmlns:svg="http://www.w3.org/2000/svg">
  <sodipodi:namedview
     id="namedview629"
     pagecolor="#ffffff"
     bordercolor="#111111"
     borderopacity="1"
     inkscape:showpageshadow="0"
     inkscape:pageopacity="0"
     inkscape:pagecheckerboard="1"
     inkscape:deskcolor="#d1d1d1"
     inkscape:document-units="mm"
     showgrid="false"
     inkscape:zoom="0.76167929"
     inkscape:cx="77.460423"
     inkscape:cy="112.25197"
     inkscape:window-width="1350"
     inkscape:window-height="1032"
     inkscape:window-x="80"
     inkscape:window-y="63"
     inkscape:window-maximized="0"
     inkscape:current-layer="layer1" />
  <defs
     id="defs624" />
  <g
     inkscape:label="Layer 1"
     inkscape:groupmode="layer"
     id="layer1"
     transform="translate(-60.778365,-119.15445)">
    <path
       style="fill:#000000;stroke-width:0.999998"
       d="m 93.091562,178.67119 c -0.02012,-0.0577 -0.05412,-1.46835 -0.07546,-3.13483 -0.02134,-1.6665 -0.06783,-3.12672 -0.103245,-3.24494 -0.123042,-0.41095 -0.200024,-0.42176 -2.922648,-0.41075 -2.224376,0.009 -2.591812,0.0284 -2.808581,0.14828 -0.137167,0.0759 -0.271171,0.19978 -0.297785,0.27538 -0.02661,0.0756 -0.03504,1.52376 -0.01872,3.21814 0.01632,1.69438 0.0019,3.12858 -0.03206,3.18712 -0.04349,0.0749 -0.307726,0.10793 -0.893761,0.11159 -1.512205,0.009 -4.453386,-0.0617 -5.918151,-0.14317 -0.793172,-0.0441 -1.7665,-0.0941 -2.162945,-0.11109 -1.174945,-0.0504 -4.724942,-0.32589 -5.687209,-0.44136 -1.359621,-0.16318 -4.689916,-0.73463 -5.474468,-0.93937 -0.822339,-0.21462 -1.599409,-0.52205 -1.800733,-0.71243 -0.08098,-0.0766 -0.147757,-0.27156 -0.153128,-0.44711 -0.01051,-0.34338 -0.334203,-1.02558 -0.646881,-1.36331 -0.290742,-0.31403 -0.688995,-0.47604 -1.311229,-0.53338 -0.320382,-0.0296 -0.615571,-0.10935 -0.713239,-0.19291 -0.282801,-0.24192 -0.703071,-1.14024 -0.962136,-2.05656 l -0.247326,-0.87481 -0.0019,-3.39298 c -0.0011,-1.86613 -0.0097,-7.07083 -0.0192,-11.56601 -0.0095,-4.49517 -0.02083,-10.30737 -0.02518,-12.91599 -0.0043,-2.60864 -0.01783,-7.23922 -0.02997,-10.29018 -0.02683,-6.74574 -0.02317,-6.78366 0.833626,-8.61761 0.507687,-1.0867 1.917436,-2.55342 2.91842,-3.03638 0.343522,-0.16573 0.345796,-0.17001 0.388417,-0.73079 0.02358,-0.31025 0.10907,-0.72792 0.189981,-0.92816 0.133443,-0.33026 0.175071,-0.36486 0.448086,-0.37249 0.209025,-0.006 0.302043,0.0298 0.304468,0.11659 0.0073,0.26144 0.374182,0.36278 1.408411,0.38902 1.147122,0.0291 1.466165,0.095 1.959402,0.40484 0.809653,0.50856 -0.61619,0.47236 20.755085,0.52687 16.627877,0.0424 19.661327,0.0318 19.775437,-0.0692 0.0741,-0.0656 0.38363,-0.24753 0.68776,-0.40433 0.54412,-0.28053 0.57289,-0.28566 1.79479,-0.31979 1.21175,-0.0339 1.24679,-0.0398 1.44748,-0.25218 0.44726,-0.47297 0.75842,-0.15492 0.87692,0.89634 l 0.0708,0.62747 0.56236,0.35022 c 0.886,0.55179 1.46138,1.10119 2.11625,2.02068 1.32946,1.86667 1.50986,2.79788 1.48564,7.66859 -0.0257,5.1694 -0.0267,5.61731 -0.0236,10.31649 0.002,2.51553 -0.004,5.66017 -0.0126,6.98808 -0.009,1.3279 -0.0174,3.04332 -0.0196,3.81203 -0.0134,4.69139 -0.0792,13.78765 -0.10514,14.52893 -0.0131,0.37305 -0.0187,1.42137 -0.0125,2.3296 0.0106,1.5461 -0.003,1.70047 -0.21584,2.42261 -0.25408,0.86293 -0.38481,1.16338 -0.79156,1.81934 l -0.28061,0.45251 -0.47835,0.0154 c -1.10891,0.035 -2.02,0.92178 -1.99161,1.93782 0.0159,0.57082 -0.22008,0.69603 -2.46216,1.30607 -3.49433,0.95077 -7.98233,1.421 -15.593575,1.6338 -2.880644,0.0805 -3.70171,0.0802 -3.730235,-0.002 z m 5.731657,-1.23715 c 1.473401,-0.81253 1.481771,-2.89524 0.01489,-3.70324 -0.35443,-0.19523 -0.501229,-0.22431 -1.046929,-0.20738 -0.483294,0.0145 -0.714262,0.0651 -0.968188,0.20987 -1.691832,0.96475 -1.302973,3.48741 0.603294,3.91377 0.377949,0.0846 1.040617,-0.0165 1.396937,-0.21302 z m -16.129256,0.24305 c 0.832542,-0.27613 1.361137,-0.97261 1.417125,-1.86719 0.07358,-1.17559 -0.758559,-2.11972 -1.946888,-2.20891 -0.847887,-0.0636 -1.603854,0.37197 -2.002022,1.15365 -0.610306,1.19814 0.0575,2.62725 1.399456,2.99485 0.338094,0.0926 0.705678,0.0691 1.132328,-0.0725 z m 27.720957,-3.32649 c 0.64348,-0.29022 1.00599,-0.89205 0.98831,-1.64071 -0.0359,-1.53659 -1.89796,-2.23186 -2.96232,-1.10634 -0.81018,0.85673 -0.58134,2.20998 0.46051,2.72334 0.44794,0.22072 1.0556,0.23024 1.5135,0.0238 z m -39.632188,0.26003 c 1.213199,-0.54718 1.342797,-2.293 0.224924,-3.02996 -1.250632,-0.82449 -2.906941,0.28809 -2.662375,1.78836 0.174523,1.07062 1.415272,1.70263 2.437451,1.2416 z M 116.68464,150.1205 c 0.78576,-0.35378 1.19553,-1.209 0.97362,-2.03198 -0.19812,-0.73479 -0.96717,-1.30859 -1.72548,-1.28741 -0.7583,0.0212 -1.49412,0.63702 -1.65093,1.38172 -0.28881,1.37172 1.12594,2.5126 2.40279,1.93767 z m -52.173298,0.1024 c 1.213198,-0.54719 1.342795,-2.293 0.224922,-3.02997 -1.250632,-0.82449 -2.906941,0.28809 -2.662375,1.78837 0.174523,1.07061 1.415272,1.70262 2.437453,1.2416 z m 47.662538,-9.11967 -0.0402,-1.43877 -1.43981,-0.0197 c -0.93235,-0.0128 -1.46902,0.0111 -1.5227,0.0677 -0.0463,0.0489 -0.0782,0.68242 -0.0722,1.43832 l 0.0107,1.3509 0.36583,8.8e-4 c 0.20119,3.8e-4 0.80456,0.0159 1.3408,0.0343 0.53624,0.0183 1.07009,0.027 1.18634,0.0193 l 0.21136,-0.0139 -0.0402,-1.43881 z m 4.46139,-13.93471 c 1.21321,-0.54718 1.3428,-2.293 0.22493,-3.02997 -1.25063,-0.82448 -2.90694,0.28809 -2.66237,1.78838 0.17452,1.0706 1.41527,1.70261 2.43744,1.24159 z m -52.174509,0.0175 c 1.213198,-0.54718 1.342795,-2.293 0.224922,-3.02996 -1.250632,-0.82449 -2.90694,0.28809 -2.662375,1.78836 0.174523,1.07062 1.415272,1.70263 2.437453,1.2416 z"
       id="path335" />
  </g>
</svg>
